<?xml version="1.0" standalone="no"?>
<!DOCTYPE svg PUBLIC "-//W3C//DTD SVG 20010904//EN"
 "http://www.w3.org/TR/2001/REC-SVG-20010904/DTD/svg10.dtd">
<svg version="1.0" xmlns="http://www.w3.org/2000/svg"
 width="512.000000pt" height="512.000000pt" viewBox="0 0 512.000000 512.000000"
 preserveAspectRatio="xMidYMid meet">

<g transform="translate(0.000000,512.000000) scale(0.100000,-0.100000)"
fill="#000000" stroke="none">
<path d="M2150 5105 c-121 -18 -198 -38 -335 -86 -179 -62 -337 -147 -515
-277 -113 -83 -345 -322 -435 -448 -122 -172 -291 -533 -326 -694 -8 -36 -24
-66 -55 -103 -147 -171 -202 -320 -211 -567 -3 -85 -1 -169 6 -202 16 -91 68
-201 153 -330 43 -65 78 -123 78 -129 0 -5 -12 -33 -27 -62 -26 -48 -28 -62
-29 -167 -1 -127 -12 -162 -79 -245 -35 -43 -88 -143 -111 -209 -8 -22 -15
-78 -15 -123 0 -131 39 -199 146 -249 28 -13 62 -24 76 -24 42 0 50 -19 43
-96 -9 -116 33 -248 103 -319 32 -32 132 -82 183 -91 40 -7 70 -30 70 -53 1
-30 38 -98 77 -141 43 -48 86 -70 138 -70 33 0 37 -4 65 -61 39 -76 99 -142
154 -169 49 -23 129 -26 166 -6 23 13 27 11 75 -38 61 -63 107 -86 203 -100
63 -9 81 -8 123 7 48 18 50 18 78 -2 34 -24 130 -51 183 -51 45 0 107 29 150
71 32 30 48 35 64 20 5 -5 44 -21 86 -36 72 -26 86 -27 205 -23 97 4 142 10
187 26 103 37 231 133 298 222 l26 35 24 -22 c13 -12 48 -33 78 -46 150 -66
333 -63 456 9 53 31 141 124 159 168 l15 34 67 -1 c123 -1 205 56 271 188 38
78 54 218 32 294 -13 47 -1 58 73 66 136 16 225 75 283 187 25 46 28 65 29
143 0 77 -4 98 -26 145 -14 31 -41 73 -59 94 l-33 37 53 52 c104 102 129 221
71 344 -16 34 -43 71 -60 84 -17 12 -31 26 -31 30 0 4 20 19 44 33 95 55 178
177 238 346 32 93 33 99 33 260 0 196 -18 278 -92 430 -36 73 -61 110 -112
160 -74 73 -170 133 -248 156 -31 9 -54 22 -57 32 -3 9 -14 58 -26 107 -31
137 -57 209 -123 340 -133 268 -336 511 -592 709 -105 82 -182 129 -367 225
-242 126 -381 169 -613 191 -145 13 -379 11 -485 -5z m485 -50 c17 -2 64 -7
105 -10 83 -6 185 -34 270 -73 30 -14 61 -26 68 -28 6 -1 51 -24 100 -49 48
-26 121 -66 162 -88 41 -22 77 -43 80 -46 3 -3 17 -12 32 -20 125 -64 426
-350 545 -516 80 -113 136 -204 136 -222 0 -7 4 -13 9 -13 5 0 6 -4 3 -10 -3
-5 -2 -10 3 -10 33 0 141 -336 157 -492 4 -29 8 -66 11 -83 11 -80 11 -413 -1
-540 -16 -173 -71 -360 -148 -509 -56 -107 -68 -117 -157 -131 -116 -17 -262
-74 -295 -114 -32 -39 -44 -64 -45 -92 0 -26 -20 -52 -36 -48 -5 1 -16 0 -24
-3 -8 -3 -35 -12 -60 -19 -27 -8 -65 -32 -95 -60 -64 -59 -86 -70 -149 -74
-91 -5 -132 -22 -193 -79 -62 -57 -103 -74 -125 -54 -7 7 -19 14 -26 16 -7 1
-38 19 -69 39 -43 29 -69 39 -114 43 -33 3 -63 3 -67 -1 -4 -3 -23 -12 -42
-19 -19 -7 -56 -29 -82 -47 -54 -39 -76 -38 -108 7 -12 16 -41 44 -66 62 -57
41 -130 49 -204 22 l-50 -18 -50 26 c-44 23 -56 25 -88 16 -52 -14 -94 -48
-136 -113 -21 -30 -41 -55 -45 -55 -4 0 -30 15 -57 33 -40 27 -61 33 -121 37
-40 3 -73 2 -73 -1 0 -3 -17 -11 -37 -18 -21 -7 -58 -30 -83 -52 -24 -21 -49
-39 -54 -39 -5 0 -32 17 -60 39 -82 63 -113 74 -191 73 -41 0 -86 -7 -108 -16
-43 -19 -48 -17 -91 32 -17 19 -47 45 -68 58 -21 13 -38 30 -38 37 0 36 -25
91 -52 117 -74 71 -151 87 -234 50 -26 -11 -51 -17 -55 -13 -10 12 -17 113 -8
119 4 2 6 11 3 18 -7 18 42 115 61 122 11 5 84 -42 105 -67 15 -18 151 -92
188 -102 23 -6 42 -15 42 -20 0 -4 4 -6 9 -3 4 3 43 -1 86 -9 123 -24 235 -19
367 14 205 52 348 141 468 292 77 98 109 150 138 225 10 27 23 58 27 69 4 11
7 24 6 29 -1 4 3 14 9 20 5 7 8 15 5 18 -3 2 0 20 6 39 5 19 12 50 15 69 3 19
10 38 17 42 22 14 85 28 100 22 16 -6 27 -62 30 -152 1 -23 5 -42 8 -42 4 0
10 -12 14 -27 11 -46 95 -205 138 -263 139 -187 286 -283 492 -325 163 -32
332 -23 493 27 175 54 339 177 438 330 140 217 180 382 150 616 -25 190 -100
354 -220 480 -132 139 -249 211 -428 263 -23 7 -45 15 -48 19 -6 6 -43 10
-145 12 -59 1 -107 -5 -180 -25 -202 -53 -298 -106 -461 -252 -88 -79 -137
-149 -178 -255 -16 -41 -34 -78 -40 -82 -6 -4 -8 -8 -4 -8 3 0 0 -26 -7 -57
-7 -32 -16 -84 -20 -115 -6 -45 -11 -59 -28 -64 -28 -9 -98 -7 -108 3 -4 4
-15 44 -24 88 -24 117 -85 271 -132 334 -7 9 -33 44 -58 78 -25 34 -68 82 -96
107 -55 50 -219 137 -350 187 -80 31 -91 32 -224 33 -133 0 -145 -1 -233 -32
-129 -46 -218 -87 -274 -127 -65 -47 -86 -45 -65 5 5 14 11 30 12 36 2 6 10
27 18 45 8 19 20 50 27 69 53 144 244 490 271 490 5 0 9 7 9 15 0 9 7 18 15
21 8 4 15 12 15 19 0 15 325 345 339 345 6 0 22 11 37 25 15 14 33 25 40 25 8
0 14 5 14 10 0 6 7 10 15 10 8 0 15 4 15 8 0 4 14 16 30 25 17 10 30 15 30 12
0 -3 9 3 20 13 24 22 176 103 182 96 3 -2 11 2 18 11 7 8 18 15 25 15 6 0 25
7 42 15 16 8 38 16 49 18 10 2 33 10 49 16 17 7 40 14 52 14 13 1 23 6 23 11
0 4 9 6 20 3 11 -3 23 -1 26 5 3 5 12 7 19 4 7 -2 16 -1 21 4 11 11 113 30
209 40 69 7 332 4 390 -5z m-1657 -1566 c2 -18 -9 -40 -38 -75 -85 -103 -160
-267 -211 -463 -30 -115 -45 -266 -28 -277 16 -10 9 -43 -11 -54 -64 -34 -88
126 -46 311 14 62 59 209 83 269 39 99 119 231 177 293 33 36 70 34 74 -4z
m1926 15 c9 -8 16 -19 16 -22 0 -4 -20 -40 -45 -79 -64 -104 -170 -325 -199
-418 -39 -124 -59 -249 -60 -377 -1 -133 -11 -158 -49 -120 -21 21 -22 31 -22
155 1 154 13 228 67 392 59 180 227 485 268 485 5 0 16 -7 24 -16z m1533 -64
c125 -56 232 -159 287 -275 75 -158 96 -253 92 -425 -3 -109 -7 -136 -33 -210
-66 -187 -138 -287 -246 -340 -112 -54 -260 -38 -339 38 -16 14 -28 31 -28 37
0 6 22 54 49 108 28 53 48 97 46 97 -2 0 5 26 16 58 62 176 97 453 84 662 -3
47 -8 122 -11 167 -3 45 -3 87 1 93 9 15 35 12 82 -10z m-1403 -122 c13 -22
-8 -112 -42 -180 -22 -43 -32 -53 -52 -53 -22 0 -25 4 -24 35 1 19 12 58 25
85 12 28 23 63 25 79 2 30 29 59 48 53 5 -2 14 -10 20 -19z m-1924 -69 c0 -11
-13 -45 -29 -77 -15 -31 -36 -81 -45 -109 -15 -44 -22 -53 -42 -53 -36 0 -41
39 -14 113 30 84 67 154 82 160 21 7 48 -12 48 -34z"/>
<path d="M4487 3133 c-19 -22 -70 -125 -87 -177 -15 -46 -4 -61 63 -86 35 -14
46 -25 69 -71 41 -85 42 -108 5 -169 -37 -61 -70 -89 -118 -99 -25 -5 -35 -13
-37 -29 -3 -20 1 -22 38 -22 54 0 91 20 133 72 50 63 67 101 67 155 -1 82 -64
186 -130 213 -16 7 -30 19 -30 26 0 8 14 43 32 78 l32 65 71 -75 c54 -56 78
-74 98 -74 43 0 33 30 -28 80 -30 25 -55 48 -55 52 0 4 -14 23 -31 43 -34 39
-67 45 -92 18z"/>
</g>
</svg>
